<?xml version="1.0" encoding="utf-8"?>
<!-- Generator: Adobe Illustrator 17.0.0, SVG Export Plug-In . SVG Version: 6.00 Build 0)  -->
<!DOCTYPE svg PUBLIC "-//W3C//DTD SVG 1.1//EN" "http://www.w3.org/Graphics/SVG/1.1/DTD/svg11.dtd">
<svg version="1.1" id="Layer_1" xmlns="http://www.w3.org/2000/svg" xmlns:xlink="http://www.w3.org/1999/xlink" x="0px" y="0px"
	 width="800px" height="600px" viewBox="0 0 800 600" enable-background="new 0 0 800 600" xml:space="preserve">
<g>
	<g>
		<path fill="#F7941E" d="M403.204,232.61c0-2.838,0-5.749,0-8.637c-3.421,0-6.725,0-10.155,0c0,2.658,0,5.244,0,7.92
			c-7.293,0-14.458,0-21.638,0c0,21.468,0,42.839,0,64.306c7.254,0,14.42,0,21.695,0c0,2.649,0,5.205,0,7.807
			c3.416,0,6.72,0,10.118,0c0-2.887,0-5.732,0-8.569c16.012-4.263,26.51-13.498,26.806-30.771
			C430.337,246.719,419.794,237.028,403.204,232.61z M418.182,266.107c-1.03,10.205-8.238,17.645-18.426,19.136
			c-3.737,0.547-7.481,0.303-11.223,0.371c-1.81,0.033-3.62,0.006-5.483,0.006c0-14.415,0-28.714,0-43.013
			c6.634-0.012,13.27-0.889,19.733,0.899C413.098,246.36,419.252,255.5,418.182,266.107z"/>
		<path fill="#F7941E" d="M365.814,279.631c-0.014-0.72,0.256-1.323,0.729-1.841c0.697-0.763,1.61-0.946,2.547-0.849
			c0-8.824,0-17.574,0-26.375c-3.636-3.051-7.296-6.123-10.962-9.2c0-8.488,0-16.911,0-25.312c-0.324-0.192-0.575-0.22-0.892,0.049
			c0,5.451,0,10.945,0,16.421c-3.243,2.867-6.435,5.69-9.768,8.638c0-1.135,0-2.042,0-2.927c2.357-0.942,3.426-2.457,3.075-4.305
			c-0.322-1.698-1.757-2.935-3.441-2.966c-1.82-0.034-3.245,1.072-3.642,2.829c-0.439,1.943,0.466,3.291,3.027,4.48
			c0,4.806,0,9.625,0,14.466c-1.492,1.383-2.983,2.765-4.516,4.186c-2.224-1.132-4.004-0.894-5.193,0.636
			c-1.071,1.378-0.998,3.322,0.172,4.627c1.119,1.248,3.037,1.545,4.497,0.697c1.723-1.001,2.132-2.723,1.223-5.298
			c1.569-1.464,3.157-2.945,4.758-4.439c0-3.566,0-7.099,0-10.679c3.221-2.846,6.434-5.686,9.826-8.684c0,2.883,0,5.48,0,8.095
			c3.583,3.004,7.136,5.983,10.693,8.964c0,8.382,0,16.733,0,25.066c-2.529,1.107-3.483,2.635-2.938,4.657
			c0.474,1.757,2.143,2.815,4.03,2.541c0.211-0.274,0.232-0.557,0.025-0.844C366.991,282.171,365.846,281.233,365.814,279.631z
			 M339.598,262.439c-1.43-0.024-2.637-1.255-2.624-2.676c0.013-1.505,1.239-2.686,2.742-2.642c1.471,0.043,2.567,1.211,2.542,2.71
			C342.233,261.296,341.043,262.464,339.598,262.439z M346.842,237.187c-1.463-0.051-2.538-1.234-2.498-2.747
			c0.039-1.437,1.279-2.613,2.711-2.568c1.412,0.044,2.621,1.321,2.583,2.728C349.596,236.103,348.367,237.241,346.842,237.187z"/>
		<path fill="#F7941E" d="M440.227,274.894c0.315,1.595,1.789,2.805,3.443,2.827c1.757,0.024,3.278-1.137,3.604-2.752
			c0.418-2.068-0.527-3.508-2.987-4.515c0-1.731,0-3.475,0-5.242c3.571-3.301,7.134-6.595,10.655-9.851c0-9.024,0-17.98,0-26.981
			c-0.318-0.019-0.591-0.156-0.868,0.194c0,8.72,0,17.502,0,26.301c-3.227,2.977-6.435,5.936-9.779,9.021
			c0-13.555,0-26.862,0-40.148c2.471-1.057,3.366-2.409,2.984-4.453c-0.293-1.567-1.782-2.797-3.443-2.847
			c-1.597-0.048-3.236,1.127-3.55,2.709c-0.404,2.037,0.218,3.572,2.948,4.64c0,15.555,0,31.122,0,46.672
			C440.865,271.383,439.836,272.915,440.227,274.894z M441.09,220.058c0.004-1.441,1.193-2.615,2.657-2.623
			c1.474-0.009,2.643,1.128,2.669,2.595c0.026,1.487-1.211,2.732-2.692,2.708C442.304,222.715,441.086,221.476,441.09,220.058z
			 M443.743,271.486c1.458-0.01,2.652,1.154,2.674,2.609c0.022,1.453-1.14,2.68-2.577,2.722c-1.467,0.043-2.757-1.214-2.75-2.678
			C441.096,272.708,442.309,271.496,443.743,271.486z"/>
		<path fill="#F7941E" d="M433.505,312.411c0-6.019,0-12.077,0-18.094c-3.246-2.659-6.416-5.256-9.588-7.855
			c-0.256,0.201-0.467,0.368-0.755,0.594c3.168,2.601,6.25,5.131,9.322,7.652c0,5.931,0,11.817,0,17.755
			c-2.318,0.797-3.294,2.21-3.013,4.251c0.224,1.628,1.715,2.934,3.413,2.988c1.723,0.055,3.35-1.208,3.659-2.841
			C436.923,314.85,435.933,313.365,433.505,312.411z M433.019,318.744c-1.454,0.011-2.65-1.155-2.673-2.607
			c-0.023-1.442,1.147-2.643,2.602-2.671c1.513-0.028,2.745,1.166,2.732,2.65C435.668,317.565,434.484,318.734,433.019,318.744z"/>
		<path fill="#F7941E" d="M425.768,243.739c2.576-1.816,5.163-3.64,7.687-5.419c0-10.142,0-20.16,0-30.157
			c-0.338-0.136-0.605-0.174-0.92,0.065c0,9.81,0,19.655,0,29.566c-2.526,1.785-4.962,3.506-7.371,5.209
			C425.28,243.399,425.47,243.595,425.768,243.739z"/>
		<path fill="#F7941E" d="M411.904,320.667c0-8.637,0-17.194,0-25.831c-0.324,0.123-0.551,0.209-0.892,0.338
			c0,8.566,0,17.054,0,25.514c-2.184,0.739-3.325,2.225-3.119,3.987c0.201,1.726,1.569,3.097,3.208,3.218
			c1.913,0.141,3.348-0.853,3.88-2.647c0.247-0.834,0.135-1.623-0.196-2.395C414.251,321.609,413.177,321.021,411.904,320.667z
			 M411.442,327c-1.436-0.027-2.59-1.241-2.571-2.703c0.02-1.462,1.205-2.647,2.638-2.639c1.423,0.008,2.65,1.232,2.659,2.651
			C414.178,325.78,412.913,327.028,411.442,327z"/>
		<path fill="#F7941E" d="M421.843,288.452c0,12.172,0,24.261,0,36.34c0.321,0.053,0.566,0.107,0.849-0.097
			c0-12.284,0-24.607,0-36.977C422.235,287.901,422.019,288.225,421.843,288.452z"/>
		<path fill="#F7941E" d="M389.591,207.374v19.443c0.301,0.002,0.602,0.004,0.901,0.006v-19.536
			c2.317-0.879,3.365-2.312,3.073-4.171c-0.273-1.738-1.645-3-3.331-3.067c-1.89-0.074-3.374,1.026-3.78,2.801
			C386.019,204.752,386.972,206.159,389.591,207.374z M390.043,200.957c1.446,0.026,2.596,1.222,2.585,2.687
			c-0.011,1.456-1.195,2.642-2.638,2.642c-1.42,0-2.662-1.229-2.673-2.644C387.306,202.159,388.554,200.93,390.043,200.957z"/>
		<path fill="#F7941E" d="M368.064,289.69c0,10.124,0,20.135,0,30.118c0.325,0.115,0.564,0.134,0.997-0.155
			c0-10.187,0-20.423,0-30.678C368.626,289.143,368.253,289.389,368.064,289.69z"/>
		<path fill="#F7941E" d="M411.875,233.137c0-10.958,0-21.857,0-32.746c-0.309-0.065-0.549-0.141-0.795,0.097
			c0,10.742,0,21.51,0,32.294C411.245,233.022,411.494,233.13,411.875,233.137z"/>
		<path fill="#F7941E" d="M378.789,298.461c0,8.647,0,17.275,0,25.888c0.338,0.103,0.609,0.163,0.901-0.055
			c0-8.613,0-17.24,0-25.865C379.346,298.265,379.058,298.213,378.789,298.461z"/>
		<path fill="#F7941E" d="M401.129,221.369v-21.855c-0.309-0.048-0.555-0.154-0.829,0.166v21.688
			C400.594,221.369,400.868,221.369,401.129,221.369z"/>
		<path fill="#F7941E" d="M400.301,245.249c0,7.222,0,14.465,0,21.754c-3.251,2.278-6.473,4.535-9.876,6.919
			c0-9.91,0-19.573,0-29.25c-0.336-0.008-0.586-0.119-0.885,0.195c0,9.825,0,19.744,0,29.666c-1.483,1.049-2.907,2.056-4.366,3.089
			c-0.017,0.312-0.035,0.624-0.066,1.188c5.487-3.846,10.792-7.565,16.058-11.256c0-7.444,0-14.799,0-22.128
			C400.91,245.205,400.672,245.087,400.301,245.249z"/>
		<path fill="#F7941E" d="M412.107,252.182c-0.343,0.25-0.709,0.517-0.975,0.71c0,8.113,0,16.098,0,24.236
			c0.336-0.358,0.551-0.587,0.828-0.882c0-7.612,0-15.17,0-22.719c0.289-0.261,0.545-0.493,0.797-0.721
			C412.594,252.511,412.481,252.247,412.107,252.182z"/>
		<g>
			<path fill="#8DC63F" d="M460.003,265.076c-1.726,1.037-2.101,2.648-1.202,5.291c-1.568,1.468-3.153,2.953-4.733,4.433
				c0,3.567,0,7.064,0,10.657c-3.197,2.827-6.408,5.667-9.8,8.667c0-2.86,0-5.424,0-8.042c-3.583-3.008-7.159-6.011-10.662-8.952
				c0-8.463,0-16.807,0-25.116c2.424-1.035,3.348-2.486,2.933-4.516c-0.304-1.485-1.818-2.722-3.404-2.783
				c-1.617-0.061-3.222,1.114-3.616,2.647c-0.521,2.029,0.339,3.424,2.899,4.676c0,7.989,0,15.989,0,24.09
				c-0.618-0.501-1.137-0.922-1.675-1.358c-0.233,0.319-0.395,0.575-0.329,0.956c4.27,3.582,8.558,7.18,12.875,10.802
				c0,8.514,0,16.967,0,25.37c0.34,0.17,0.582,0.156,0.977,0.005c0-5.519,0-11.011,0-16.477c3.246-2.867,6.43-5.678,9.814-8.667
				c0,0.986,0.006,1.657-0.003,2.329c-0.003,0.208-0.044,0.415-0.064,0.592c-2.519,1.154-3.503,2.641-3.037,4.536
				c0.418,1.704,1.918,2.83,3.709,2.782c1.699-0.045,3.107-1.319,3.437-3.108c0.324-1.762-0.783-3.278-3.079-4.173
				c0-4.83,0-9.678,0-14.533c1.503-1.393,2.99-2.77,4.449-4.122c2.381,1.089,4.128,0.834,5.277-0.719
				c1.034-1.397,0.929-3.36-0.249-4.628C463.382,264.493,461.432,264.217,460.003,265.076z M430.345,248.315
				c0.022-1.428,1.237-2.588,2.695-2.574c1.45,0.015,2.668,1.23,2.642,2.636c-0.026,1.424-1.242,2.577-2.707,2.567
				C431.509,250.936,430.323,249.75,430.345,248.315z M457.14,293.393c-0.003,1.47-1.199,2.694-2.617,2.68
				c-1.398-0.014-2.656-1.267-2.683-2.67c-0.027-1.416,1.193-2.617,2.667-2.626C455.978,290.769,457.143,291.927,457.14,293.393z
				 M461.907,270.836c-1.433,0.025-2.636-1.162-2.65-2.617c-0.015-1.483,1.116-2.682,2.558-2.713
				c1.415-0.031,2.635,1.178,2.645,2.623C464.471,269.612,463.341,270.811,461.907,270.836z"/>
			<path fill="#8DC63F" d="M361.298,253.177c-0.22-1.542-1.671-2.862-3.225-2.933c-1.796-0.083-3.434,0.98-3.818,2.477
				c-0.539,2.104,0.324,3.519,2.962,4.834c0,1.667,0,3.344,0,5.144c-3.58,3.315-7.141,6.613-10.638,9.851c0,9.061,0,18.016,0,26.977
				c0.305,0.065,0.543,0.145,0.816-0.174c0-8.696,0-17.476,0-26.252c3.245-2.992,6.448-5.945,9.804-9.04c0,13.576,0,26.857,0,40.12
				c-2.496,1.121-3.346,2.356-3.001,4.322c0.3,1.715,1.631,2.899,3.39,3.017c1.501,0.101,3.083-1.012,3.58-2.544
				c0.237-0.729,0.212-1.466-0.008-2.203c-0.443-1.488-1.646-2.147-3.044-2.637c0.236-15.624-0.127-31.17,0.136-46.664
				C360.625,256.58,361.585,255.183,361.298,253.177z M360.402,307.861c0.03,1.417-1.195,2.636-2.655,2.642
				c-1.472,0.006-2.655-1.157-2.654-2.611c0-1.482,1.138-2.651,2.612-2.683C359.062,305.179,360.373,306.468,360.402,307.861z
				 M357.695,256.469c-1.405-0.002-2.619-1.264-2.603-2.706c0.016-1.434,1.283-2.679,2.68-2.634c1.441,0.047,2.657,1.299,2.63,2.708
				C360.377,255.246,359.116,256.471,357.695,256.469z"/>
			<path fill="#8DC63F" d="M418.699,234.973c0.336,1.781,1.755,3.037,3.463,3.065c1.714,0.028,3.236-1.134,3.625-2.767
				c0.464-1.949-0.447-3.365-2.931-4.551c0-6.841,0-13.685,0-20.495c2.437-1.13,3.372-2.589,2.947-4.523
				c-0.343-1.56-1.874-2.788-3.496-2.803c-1.651-0.016-3.153,1.142-3.545,2.72c-0.404,1.625,0.133,3.632,2.966,4.631
				c0,6.803,0,13.619,0,20.478C419.353,231.7,418.353,233.135,418.699,234.973z M419.622,206.554
				c-0.011-1.511,1.086-2.618,2.603-2.628c1.466-0.01,2.685,1.151,2.706,2.577c0.021,1.414-1.203,2.625-2.655,2.627
				C420.735,209.132,419.632,208.061,419.622,206.554z M422.241,231.807c1.458-0.01,2.687,1.171,2.694,2.59
				c0.007,1.416-1.212,2.61-2.667,2.613c-1.535,0.003-2.641-1.079-2.646-2.587C419.617,232.916,420.716,231.818,422.241,231.807z"/>
			<path fill="#8DC63F" d="M372.023,211.132c-0.238-1.516-1.704-2.808-3.277-2.888c-1.79-0.091-3.407,1.056-3.777,2.68
				c-0.47,2.06,0.445,3.498,3.002,4.649c0,5.998,0,12.024,0,18.074c0.387,0.29,0.746,0.559,1.138,0.853
				c-0.233-6.381-0.04-12.669-0.121-18.998C371.374,214.685,372.352,213.225,372.023,211.132z M368.496,214.463
				c-1.459,0.001-2.682-1.188-2.676-2.604c0.006-1.49,1.14-2.602,2.652-2.602c1.53,0.001,2.671,1.097,2.683,2.578
				C371.165,213.245,369.934,214.462,368.496,214.463z"/>
			<path fill="#8DC63F" d="M390.451,320.675c0-7.393,0-14.834,0-22.317c-0.366-0.027-0.641-0.179-0.907,0.256
				c0,7.278,0,14.658,0,22.06c-2.574,1.211-3.508,2.59-3.114,4.468c0.338,1.612,1.904,2.913,3.512,2.92
				c1.701,0.007,3.182-1.175,3.547-2.831C393.938,323.196,393.096,321.903,390.451,320.675z M389.966,327.029
				c-1.457-0.01-2.678-1.217-2.655-2.627c0.023-1.427,1.24-2.585,2.706-2.575c1.532,0.011,2.605,1.097,2.595,2.626
				C392.601,325.965,391.498,327.039,389.966,327.029z"/>
			<path fill="#8DC63F" d="M379.674,229.621c0-8.869,0-17.667,0-26.475c-0.35-0.03-0.632-0.14-0.925,0.14c0,8.725,0,17.493,0,26.225
				C379.042,229.779,379.32,229.705,379.674,229.621z"/>
			<path fill="#8DC63F" d="M400.361,306.386c-0.001,7.34-0.001,14.68-0.001,22.064c0.268,0,0.472,0,0.758,0
				c0-7.451,0-14.82,0-22.208C400.802,306.242,400.545,306.112,400.361,306.386z"/>
			<path fill="#8DC63F" d="M400.351,277.901c0,1.604,0,3.226,0,4.834c0.328,0.166,0.58,0.168,0.803-0.09c0-1.593,0-3.185,0-4.834
				C400.807,277.711,400.569,277.65,400.351,277.901z"/>
		</g>
	</g>
	<g>
		<g>
			<path fill="#8DC63F" d="M242.223,360.227c0.182,10.746-6.375,21.614-21.25,21.614c-5.221,0-11.475,0-16.696,0v-42.5
				c5.221,0,11.475,0,16.696,0C235.544,339.341,242.041,349.723,242.223,360.227z M212.23,374.13h8.743
				c9.654,0,13.479-7.043,13.297-13.964c-0.182-6.618-4.068-13.236-13.297-13.236h-8.743V374.13z"/>
			<path fill="#8DC63F" d="M271.307,351.908h7.104v29.933h-6.982l-0.364-4.371c-1.7,3.521-6.375,5.221-9.714,5.282
				c-8.864,0.061-15.422-5.404-15.422-15.907c0-10.322,6.861-15.726,15.604-15.665c4.007,0,7.832,1.883,9.532,4.857L271.307,351.908
				z M253.335,366.845c0,5.707,3.947,9.106,8.865,9.106c11.657,0,11.657-18.153,0-18.153
				C257.282,357.798,253.335,361.137,253.335,366.845z"/>
			<path fill="#8DC63F" d="M314.416,366.905c0,8.621-5.889,15.604-15.604,15.604s-15.543-6.982-15.543-15.604
				c0-8.562,5.95-15.604,15.482-15.604C308.284,351.302,314.416,358.344,314.416,366.905z M290.677,366.905
				c0,4.554,2.732,8.804,8.136,8.804c5.403,0,8.136-4.25,8.136-8.804c0-4.493-3.157-8.864-8.136-8.864
				C293.47,358.041,290.677,362.412,290.677,366.905z"/>
			<path fill="#8DC63F" d="M365.965,381.841h-6.8l-5.282-13.357l-4.493-13.418l-4.432,13.54l-5.161,13.235h-6.8l-15.604-42.5h8.986
				l10.018,30.66l10.322-30.66h5.221l10.625,30.66l9.714-30.66h8.986L365.965,381.841z"/>
			<path fill="#8DC63F" d="M404.341,351.908h7.104v29.933h-6.982l-0.364-4.371c-1.7,3.521-6.375,5.221-9.714,5.282
				c-8.864,0.061-15.422-5.404-15.422-15.907c0-10.322,6.861-15.726,15.604-15.665c4.007,0,7.832,1.883,9.532,4.857L404.341,351.908
				z M386.369,366.845c0,5.707,3.947,9.106,8.865,9.106c11.657,0,11.657-18.153,0-18.153
				C390.316,357.798,386.369,361.137,386.369,366.845z"/>
			<path fill="#F7941E" d="M452.792,351.666c0,3.278-1.578,6.436-5.524,8.196c4.979,1.518,6.8,6.8,6.8,9.472
				c0,9.471-7.104,12.507-15.907,12.507c-6.739,0-13.418,0-20.157,0v-42.5c6.679,0,13.418,0,20.157,0
				C446.539,339.341,452.792,343.105,452.792,351.666z M425.896,356.402h12.265c5.039,0,6.679-2.125,6.679-4.554
				c0-1.942-1.579-5.222-6.679-5.222h-12.265V356.402z M425.896,374.373h12.265c3.278,0,7.953-1.093,7.953-5.101
				c0-3.824-4.675-5.828-7.953-5.828h-12.265V374.373z"/>
			<path fill="#F7941E" d="M466.759,351.908v15.665c0,4.553,2.489,8.014,7.226,8.014c4.554,0,7.649-3.825,7.649-8.378v-15.301h7.347
				v29.993h-6.617l-0.486-4.067c-3.097,3.035-5.95,4.492-10.14,4.492c-7.164,0-12.386-5.403-12.386-14.692v-15.726H466.759z"/>
			<path fill="#F7941E" d="M517.58,381.841v-15.664c0-4.554-2.489-8.015-7.225-8.015c-4.554,0-7.65,3.825-7.65,8.379v15.3h-7.347
				v-29.993h6.618l0.485,4.068c3.036-2.976,6.072-4.493,9.836-4.493c7.043,0,12.689,5.282,12.689,14.692v15.726H517.58z"/>
			<path fill="#F7941E" d="M554.861,348.873l5.465,4.128l-3.34,4.25c2.308,2.611,3.157,5.586,3.157,8.864
				c0,3.704-1.396,8.926-6.314,11.172c4.979,2.489,6.193,6.071,6.193,9.896c0,8.257-6.314,13.357-14.996,13.357
				c-8.683,0-15.179-5.282-15.179-13.357h7.346c0,3.886,3.583,6.436,7.833,6.436s7.589-2.307,7.589-6.436s-3.886-6.011-7.589-6.011
				c-9.351,0-15.179-5.707-15.179-15.058c0-9.35,6.8-15.178,15.179-15.178c2.367,0,4.796,0.303,6.86,1.699L554.861,348.873z
				 M537.193,366.115c0,5.222,3.521,8.318,7.833,8.318c4.25,0,7.771-3.157,7.771-8.318c0-5.16-3.521-8.438-7.771-8.438
				C540.714,357.677,537.193,360.895,537.193,366.115z"/>
			<path fill="#F7941E" d="M588.62,351.908h7.104v29.933h-6.982l-0.364-4.371c-1.699,3.521-6.375,5.221-9.714,5.282
				c-8.864,0.061-15.422-5.404-15.422-15.907c0-10.322,6.861-15.726,15.604-15.665c4.008,0,7.833,1.883,9.532,4.857L588.62,351.908z
				 M570.649,366.845c0,5.707,3.946,9.106,8.864,9.106c11.657,0,11.657-18.153,0-18.153
				C574.595,357.798,570.649,361.137,570.649,366.845z"/>
		</g>
	</g>
</g>
</svg>
